<svg width="130" height="40" viewBox="0 0 130 40" fill="none" xmlns="http://www.w3.org/2000/svg">
<path d="M58.7703 2.36164L53.0344 4.69928H50.613C49.2731 4.69928 48.1917 4.60483 48.1917 4.48676C48.1917 4.06174 47.4629 3.51865 46.8987 3.51865C46.0054 3.51865 45.6058 4.34509 45.6058 6.13964V7.72168L44.783 8.00503C43.7486 8.33561 43.7251 8.64257 44.736 8.78424C45.1356 8.83147 44.9711 8.85508 44.3128 8.80786C43.6781 8.76063 38.9295 8.71341 33.8047 8.71341H24.472L24.4014 8.17032C24.3544 7.76891 24.1664 7.65084 23.6257 7.65084C23.085 7.65084 22.8969 7.76891 22.8499 8.17032C22.7794 8.64257 22.6383 8.71341 21.6275 8.71341C20.7107 8.71341 19.8644 8.43006 17.443 7.27304L14.4105 5.83268L11.2839 7.27304C7.82821 8.87869 6.62929 9.09121 6.22966 8.17032C6.0651 7.79252 5.80651 7.65084 5.28933 7.65084C4.74864 7.65084 4.56058 7.76891 4.51356 8.17032C4.44304 8.59534 4.27848 8.71341 3.73779 8.71341C3.07957 8.71341 3.05606 8.73702 3.05606 9.89403C3.05606 10.7441 2.96203 11.1219 2.70344 11.2163C2.25678 11.4052 2.25678 11.783 2.70344 11.783C2.93852 11.783 3.05606 12.0428 3.05606 12.6095C3.05606 13.0581 3.15009 13.4359 3.24412 13.4359C3.80832 13.4359 4.01989 14.711 4.06691 18.1112C4.11392 21.7003 4.11392 21.7003 3.59675 21.7003C3.10307 21.7003 3.05606 21.8184 3.05606 22.7629C3.05606 23.7074 3.12658 23.8254 3.59675 23.8254C4.11392 23.8254 4.11392 23.849 4.11392 27.7215C4.11392 30.6731 4.0434 31.6176 3.83183 31.6176C3.66727 31.6176 3.52622 31.8301 3.52622 32.0662C3.52622 32.3023 3.36166 32.5857 3.15009 32.6565C2.84448 32.7746 2.79747 33.2232 2.86799 35.5136L2.93852 38.2291H1.48101H0V38.9374V39.6458H20.5696C31.877 39.6458 41.1392 39.7166 41.1392 39.8111C41.1392 39.9292 51.9295 40 65.1175 40C78.3056 40 89.0958 39.9292 89.0958 39.8111C89.0958 39.7166 98.311 39.6458 109.548 39.6458H130V38.9374V38.2291H128.59H127.179V35.3956C127.179 33.0343 127.132 32.5621 126.826 32.5621C126.638 32.5621 126.474 32.3495 126.474 32.0898C126.474 31.8301 126.38 31.6176 126.239 31.6176C126.098 31.6176 126.004 30.1536 126.004 27.7215V23.8254H126.591C127.132 23.8254 127.179 23.731 127.179 22.7629C127.179 21.7947 127.132 21.7003 126.591 21.7003H126.004V18.0404C126.004 14.4276 126.004 14.3568 126.591 13.7665C126.944 13.4123 127.179 12.9164 127.179 12.4914C127.179 12.0192 127.297 11.783 127.532 11.783C127.72 11.783 127.884 11.665 127.884 11.5469C127.884 11.4052 127.72 11.3108 127.532 11.3108C127.25 11.3108 127.179 11.0038 127.179 10.0121C127.179 8.76063 127.156 8.71341 126.521 8.71341C126.074 8.71341 125.816 8.54812 125.651 8.17032C125.486 7.79252 125.228 7.65084 124.711 7.65084C124.17 7.65084 123.982 7.76891 123.935 8.17032C123.794 9.16204 122.289 8.90231 118.81 7.29665L115.754 5.85629L112.627 7.27304C109.101 8.90231 107.738 9.13843 107.315 8.17032C107.15 7.79252 106.892 7.65084 106.374 7.65084C105.834 7.65084 105.646 7.76891 105.599 8.17032L105.528 8.71341H95.8897C90.6004 8.71341 86.2749 8.61896 86.2749 8.52451C86.2749 8.40644 85.8517 8.17032 85.3345 8.00503L84.3942 7.69807V5.99797C84.3942 4.65205 84.3002 4.22703 83.9711 3.92006C83.3599 3.35336 82.6311 3.4242 82.0904 4.10896C81.6438 4.67567 81.5027 4.69928 79.3635 4.69928H77.1067L71.2297 2.33802C67.9855 1.03934 65.1646 -0.0232277 64.9295 0.000385284C64.7179 0.000385284 61.9439 1.06295 58.7703 2.36164ZM73.5805 4.46315L81.9259 7.74529H65.1175C54.7269 7.74529 48.4973 7.65084 48.7794 7.50917C49.9313 6.98969 64.7884 1.1574 65 1.1574C65.141 1.1574 68.9964 2.64499 73.5805 4.46315ZM18.5714 9.11482L22.6148 10.9566L18.4774 11.0274C16.1971 11.051 12.4828 11.051 10.226 11.0274L6.13562 10.9566L10.0615 9.13843C12.2242 8.14671 14.1049 7.32027 14.2694 7.32027C14.4105 7.29665 16.3382 8.12309 18.5714 9.11482ZM119.844 9.09121C122.007 10.0593 123.817 10.9094 123.864 10.9802C123.911 11.0274 120.221 11.0747 115.637 11.0747H107.315L111.311 9.20927C113.521 8.17032 115.448 7.32027 115.613 7.32027C115.778 7.29665 117.682 8.09948 119.844 9.09121ZM83.689 9.42178V10.1302H65.1175H46.5461V9.42178V8.71341H65.1175H83.689V9.42178ZM45.6058 10.0121C45.6058 10.3191 44.2423 10.3663 34.745 10.3663C25.7414 10.3427 23.7667 10.2954 23.2731 10.0121C22.7559 9.70513 24.0958 9.68152 34.1573 9.65791C44.1718 9.65791 45.6058 9.70513 45.6058 10.0121ZM106.727 10.0121C106.233 10.2954 104.259 10.3427 95.2785 10.3663C85.7577 10.3663 84.3942 10.3191 84.3942 10.0121C84.3942 9.70513 85.8282 9.65791 95.8662 9.65791C105.904 9.68152 107.244 9.70513 106.727 10.0121ZM52.7523 11.5941C53.0579 12.0192 53.1284 12.7984 53.1284 15.2541C53.1284 17.1903 53.0344 18.3945 52.8933 18.3945C52.7523 18.3945 52.6582 17.4737 52.6582 16.0805V13.7429L51.6239 13.0109C51.0597 12.5859 50.4955 12.2553 50.4014 12.2553C50.3074 12.2553 49.7197 12.6095 49.085 13.0109L47.9801 13.7901L47.9566 16.0805C47.9566 17.3556 47.8861 18.3945 47.792 18.3945C47.557 18.3945 47.792 11.7594 48.0271 11.358C48.1682 11.1691 48.8969 11.0747 50.3074 11.0747C52.1881 11.0747 52.4231 11.1219 52.7523 11.5941ZM60.1338 11.665C60.4394 12.3497 60.5335 18.3945 60.2514 18.3945C60.1338 18.3945 60.0633 17.2139 60.0633 15.7736C60.0633 13.2942 60.0398 13.1526 59.4756 12.7275C58.6998 12.1372 57.83 11.9955 56.8192 12.2789C55.5262 12.6331 55.3852 12.9873 55.2206 15.8916L55.1031 18.5126L55.0561 15.2541C54.9855 11.0038 54.962 11.0747 57.736 11.0747C59.8047 11.0747 59.8752 11.0983 60.1338 11.665ZM67.4684 11.5233C67.6094 11.8066 67.6799 13.3415 67.6564 15.2541C67.6094 18.2056 67.5859 18.3001 67.5154 16.1514L67.4448 13.7901L66.3165 13.0109C65.7052 12.6095 65.1175 12.2553 65.0235 12.2553C64.9295 12.2553 64.3653 12.5859 63.8011 13.0109L62.7667 13.7429V16.0805C62.7667 17.4737 62.6727 18.3945 62.5316 18.3945C62.2025 18.3945 62.226 12.4206 62.5787 11.665C62.8372 11.0983 62.9078 11.0747 65.0235 11.0747C66.9512 11.0747 67.2568 11.1219 67.4684 11.5233ZM74.8499 11.665C75.1555 12.1136 75.226 12.8692 75.226 15.3249C75.226 19.1265 74.8029 19.5043 74.7089 15.7736C74.6383 13.2234 74.6148 13.1053 74.0036 12.6567C73.6275 12.3733 73.0163 12.1844 72.4051 12.1844C71.7939 12.1844 71.1826 12.3733 70.8065 12.6567C70.1953 13.1053 70.1718 13.2234 70.1013 15.7736C70.0072 19.5043 69.5841 19.1265 69.5841 15.3249C69.5841 11.1455 69.6311 11.0747 72.4051 11.0747C74.3327 11.0747 74.4973 11.1219 74.8499 11.665ZM82.2315 11.665C82.5841 12.4206 82.6076 18.3945 82.2785 18.3945C82.1374 18.3945 82.0434 17.4737 82.0434 16.0805V13.7665L80.9855 13.0109C80.3978 12.5859 79.8336 12.2553 79.7396 12.2553C79.6691 12.2553 79.0814 12.6095 78.4702 13.0109L77.3418 13.7901V16.0805C77.3418 17.3556 77.2712 18.3945 77.1772 18.3945C76.9421 18.3945 77.1772 11.7594 77.4123 11.358C77.5533 11.1691 78.3056 11.0747 79.7866 11.0747C81.9024 11.0747 81.9729 11.0983 82.2315 11.665ZM24.4955 12.4206C24.7306 12.6567 22.6618 12.7275 14.1519 12.7275C4.77215 12.7275 3.52622 12.6803 3.52622 12.3733C3.52622 12.0428 4.70163 12.0192 13.8698 12.0664C21.745 12.1136 24.2604 12.2081 24.4955 12.4206ZM126.474 12.3733C126.474 12.6803 125.157 12.7275 116.013 12.7275C109.736 12.7275 105.552 12.6331 105.552 12.515C105.552 12.397 105.74 12.2317 105.975 12.1844C106.186 12.1136 110.888 12.0664 116.436 12.0428C125.204 12.0192 126.474 12.0664 126.474 12.3733ZM45.6058 12.4914C45.6058 12.6567 42.0326 12.7275 35.3797 12.7275C28.7269 12.7275 25.1537 12.6567 25.1537 12.4914C25.1537 12.3261 28.7269 12.2553 35.3797 12.2553C42.0326 12.2553 45.6058 12.3261 45.6058 12.4914ZM104.846 12.4914C104.846 12.6567 101.273 12.7275 94.6203 12.7275C87.9674 12.7275 84.3942 12.6567 84.3942 12.4914C84.3942 12.3261 87.9674 12.2553 94.6203 12.2553C101.273 12.2553 104.846 12.3261 104.846 12.4914ZM83.689 22.2906C83.689 28.666 83.6184 32.0898 83.4539 32.0898C83.2893 32.0898 83.2188 28.666 83.2188 22.2906C83.2188 15.9152 83.2893 12.4914 83.4539 12.4914C83.6184 12.4914 83.689 15.9152 83.689 22.2906ZM22.5678 17.5681C22.5678 20.1655 22.4738 21.7003 22.3327 21.7003C22.2152 21.7003 22.0976 21.3697 22.0976 20.9919C22.0976 20.5905 22.0036 20.2835 21.8626 20.2835C21.7215 20.2835 21.6275 19.1501 21.6275 17.332V14.3804H19.6293H17.6311V17.332C17.6311 19.1501 17.5371 20.2835 17.396 20.2835C17.2785 20.2835 17.1609 20.5905 17.1609 20.9919C17.1609 21.3697 17.0669 21.7003 16.9259 21.7003C16.8083 21.7003 16.6908 21.3697 16.6908 20.9919C16.6908 20.5905 16.5967 20.2835 16.4557 20.2835C16.3146 20.2835 16.2206 19.1501 16.2206 17.332V14.3568L14.2929 14.4276L12.3418 14.4985L12.2712 17.3792C12.2477 19.0557 12.1067 20.2835 11.9892 20.2835C11.8481 20.2835 11.7306 20.6377 11.7071 21.0391L11.6835 21.8184L11.5895 21.0391C11.519 20.5905 11.3544 20.2835 11.1429 20.2835C10.8843 20.2835 10.8137 19.7405 10.8137 17.332V14.3804H8.93309H7.05244V17.332C7.05244 19.1501 6.95841 20.2835 6.81736 20.2835C6.69982 20.2835 6.58228 20.5905 6.58228 20.9919C6.58228 21.4642 6.46474 21.7003 6.22966 21.7003C5.92405 21.7003 5.87703 21.0864 5.87703 17.5681V13.4359H14.2224H22.5678V17.5681ZM45.6058 16.6236C45.6058 18.5834 45.5118 19.8113 45.3707 19.8113C45.2297 19.8113 45.1356 18.7015 45.1356 16.9778V14.1443H43.1374H41.1392V16.9778C41.1392 18.7015 41.0452 19.8113 40.9042 19.8113C40.7866 19.8113 40.6691 20.1183 40.6691 20.5197C40.6691 20.8975 40.575 21.228 40.434 21.228C40.3165 21.228 40.1989 20.8975 40.1989 20.5197C40.1989 20.1183 40.1049 19.8113 39.9638 19.8113C39.8228 19.8113 39.7288 18.7015 39.7288 16.9778V14.1443H37.7306H35.7324V16.9778C35.7324 18.7015 35.6383 19.8113 35.4973 19.8113C35.3797 19.8113 35.2622 20.1183 35.2622 20.5197C35.2622 20.8975 35.1682 21.228 35.0271 21.228C34.9096 21.228 34.792 20.8975 34.792 20.5197C34.792 20.1183 34.698 19.8113 34.557 19.8113C34.4159 19.8113 34.3219 18.7015 34.3219 16.9778V14.1207L32.3942 14.1915L30.443 14.2624V17.0486C30.443 19.1029 30.3725 19.8113 30.1609 19.8113C29.9729 19.8113 29.8318 20.1419 29.8083 20.5669L29.7848 21.3461L29.6908 20.5669C29.6203 20.1183 29.4557 19.8113 29.2441 19.8113C28.9855 19.8113 28.915 19.2918 28.915 16.9778V14.1443H27.0344H25.1537V16.9778C25.1537 18.5834 25.0597 19.8113 24.9421 19.8113C24.8011 19.8113 24.66 20.1655 24.613 20.5669C24.566 20.9919 24.4955 19.8349 24.4955 17.9695C24.4485 15.2305 24.519 14.4985 24.8246 14.0262L25.2007 13.4359H35.4033H45.6058V16.6236ZM105.269 14.0262C105.669 14.8999 105.646 19.8113 105.269 19.8113C105.034 19.8113 104.987 19.1265 105.034 16.9778L105.105 14.1443H103.107H101.085V16.9778C101.085 18.7015 100.991 19.8113 100.85 19.8113C100.732 19.8113 100.615 20.1183 100.615 20.5197C100.615 20.8975 100.521 21.228 100.38 21.228C100.262 21.228 100.145 20.8975 100.145 20.5197C100.145 20.1183 100.051 19.8113 99.9096 19.8113C99.7685 19.8113 99.6745 18.7015 99.6745 16.9778V14.1443H97.6763H95.6781V16.9778C95.6781 18.7015 95.5841 19.8113 95.443 19.8113C95.3255 19.8113 95.208 20.1183 95.208 20.5197C95.208 20.8975 95.1139 21.228 94.9729 21.228C94.8553 21.228 94.7378 20.8975 94.7378 20.5197C94.7378 20.1183 94.6438 19.8113 94.5027 19.8113C94.3617 19.8113 94.2676 18.7015 94.2676 16.9778V14.1443H92.2459H90.2477L90.3183 16.9778C90.3653 19.1265 90.3183 19.8113 90.1067 19.8113C89.9186 19.8113 89.7776 20.1419 89.7541 20.5669L89.7306 21.3461L89.6365 20.5669C89.566 20.1183 89.4014 19.8113 89.1899 19.8113C88.9313 19.8113 88.8608 19.2918 88.8608 16.9778V14.1443H86.9801H85.0995V16.9778C85.0995 18.5834 85.0054 19.8113 84.8879 19.8113C84.7468 19.8113 84.6058 20.1655 84.5588 20.5669C84.5117 20.9919 84.4412 19.5752 84.4412 17.3792L84.3942 13.4359H94.6908H105.011L105.269 14.0262ZM124.123 17.5681C124.123 20.1655 124.029 21.7003 123.888 21.7003C123.77 21.7003 123.653 21.3697 123.653 20.9919C123.653 20.5905 123.559 20.2835 123.418 20.2835C123.277 20.2835 123.183 19.1501 123.183 17.332V14.3804H121.184H119.186V17.332C119.186 19.1501 119.092 20.2835 118.951 20.2835C118.834 20.2835 118.716 20.5905 118.716 20.9919C118.716 21.3697 118.622 21.7003 118.481 21.7003C118.363 21.7003 118.246 21.3697 118.246 20.9919C118.246 20.5905 118.152 20.2835 118.011 20.2835C117.87 20.2835 117.776 19.1501 117.776 17.332V14.3804H115.778H113.779V17.332C113.779 19.1501 113.685 20.2835 113.544 20.2835C113.427 20.2835 113.309 20.5905 113.309 20.9919C113.309 21.3697 113.215 21.7003 113.074 21.7003C112.957 21.7003 112.839 21.3697 112.839 20.9919C112.839 20.5905 112.745 20.2835 112.604 20.2835C112.463 20.2835 112.369 19.1501 112.369 17.332V14.3568L110.441 14.4276L108.49 14.4985V17.4028C108.49 19.5516 108.42 20.2835 108.208 20.2835C108.02 20.2835 107.902 20.5905 107.902 20.9919C107.902 21.3697 107.808 21.7003 107.667 21.7003C107.526 21.7003 107.432 20.1655 107.432 17.5681V13.4359H115.778H124.123V17.5681ZM51.953 16.3875V18.3945H50.3074H48.6618V16.3875V14.3804H50.3074H51.953V16.3875ZM59.358 16.3875V18.3945H57.6655H55.9494V16.3875V14.3804H57.6655H59.358V16.3875ZM66.7631 16.3875V18.3945H65.0705H63.3544V16.3875V14.3804H65.0705H66.7631V16.3875ZM74.0506 16.3875V18.3945H72.4051H70.7595V16.3875V14.3804H72.4051H74.0506V16.3875ZM81.3382 16.3875V18.3945H79.6926H78.047V16.3875V14.3804H79.6926H81.3382V16.3875ZM28.4448 17.332V19.8113H27.1519H25.859V17.332V14.8527H27.1519H28.4448V17.332ZM33.6166 17.332V19.8113H32.3237H31.0307V17.332V14.8527H32.3237H33.6166V17.332ZM39.0235 17.332V19.8113H37.7306H36.4376V17.332V14.8527H37.7306H39.0235V17.332ZM44.4304 17.332V19.8113H43.1374H41.8445V17.332V14.8527H43.1374H44.4304V17.332ZM88.2731 17.332V19.8113H87.0506H85.8047V17.332V14.8527H87.0506H88.2731V17.332ZM93.5624 17.332V19.8113H92.2694H90.9765V17.332V14.8527H92.2694H93.5624V17.332ZM98.9693 17.332V19.8113H97.6763H96.3834V17.332V14.8527H97.6763H98.9693V17.332ZM104.376 17.332V19.8113H103.083H101.79V17.332V14.8527H103.083H104.376V17.332ZM10.1085 17.8042V20.2835H8.93309H7.75769V17.8042V15.3249H8.93309H10.1085V17.8042ZM15.5154 17.8042V20.2835H14.2224H12.9295V17.8042V15.3249H14.2224H15.5154V17.8042ZM20.9222 17.8042V20.2835H19.6293H18.3363V17.8042V15.3249H19.6293H20.9222V17.8042ZM111.664 17.8042V20.2835H110.488H109.313V17.8042V15.3249H110.488H111.664V17.8042ZM117.071 17.8042V20.2835H115.778H114.485V17.8042V15.3249H115.778H117.071V17.8042ZM122.477 17.8042V20.2835H121.184H119.892V17.8042V15.3249H121.184H122.477V17.8042ZM53.1284 20.2835V21.4642H50.3779H47.604V20.2835V19.1029H50.3779H53.1284V20.2835ZM60.4159 20.2835V21.4642H57.7125H55.009V20.2835V19.1029H57.7125H60.4159V20.2835ZM67.7034 20.2835V21.4642H65H62.2966V20.2835V19.1029H65H67.7034V20.2835ZM75.226 20.2835V21.4642H72.4051H69.5841V20.2835V19.1029H72.4051H75.226V20.2835ZM82.5136 20.2835V21.4642H79.7631H76.9892V20.2835V19.1029H79.7631H82.5136V20.2835ZM45.7233 22.5267V23.117H35.3327H24.9186V22.5267V21.9364H35.3327H45.7233V22.5267ZM105.081 22.5267V23.117H94.7378H84.3942V22.5267V21.9364H94.7378H105.081V22.5267ZM82.5136 22.6448C82.5136 23.117 82.349 23.117 65.141 23.117C47.9801 23.117 47.7685 23.117 47.651 22.6448C47.5335 22.1725 47.651 22.1725 65.0235 22.1725C82.349 22.1725 82.5136 22.1725 82.5136 22.6448ZM24.4485 22.7629C24.4485 23.0698 23.132 23.117 13.9873 23.117C4.84268 23.117 3.52622 23.0698 3.52622 22.7629C3.52622 22.4559 4.84268 22.4087 13.9873 22.4087C23.132 22.4087 24.4485 22.4559 24.4485 22.7629ZM126.474 22.7629C126.474 23.0698 125.157 23.117 116.13 23.117C107.103 23.117 105.787 23.0698 105.787 22.7629C105.787 22.4559 107.103 22.4087 116.13 22.4087C125.157 22.4087 126.474 22.4559 126.474 22.7629ZM22.5678 25.4783C22.5678 27.3437 22.2857 27.5798 21.4394 26.4228C20.7812 25.5255 19.6058 25.2894 18.5714 25.8325C18.1483 26.045 17.7486 26.4228 17.7016 26.6825C17.5136 27.3437 16.7378 27.2256 16.0796 26.4228C15.3273 25.5491 14.1989 25.2894 13.2116 25.8089C12.8119 26.0214 12.4358 26.3992 12.3418 26.6589C12.1302 27.3673 11.425 27.2256 10.5081 26.3047C9.99096 25.7853 9.45027 25.4783 9.07414 25.4783C8.20434 25.4783 7.12297 26.0922 6.9349 26.6589C6.86438 26.9187 6.58228 27.1312 6.32369 27.1312C5.92405 27.1312 5.87703 26.9659 5.87703 25.4783V23.8254H14.2224H22.5678V25.4783ZM45.6058 25.4783C45.6058 26.8006 45.5353 27.1312 45.2532 27.1312C45.0651 27.1312 44.9005 26.9895 44.9005 26.8242C44.9005 26.1867 43.9367 25.5964 42.9024 25.5964C41.868 25.5964 40.9042 26.1867 40.9042 26.8242C40.9042 27.3201 39.7993 27.202 39.6582 26.6825C39.6112 26.4228 39.2116 26.045 38.7884 25.8325C37.7541 25.2894 36.5787 25.5255 35.9204 26.4228C35.3327 27.2492 34.651 27.3437 34.4394 26.6589C34.3454 26.3992 33.9693 26.0214 33.5696 25.8089C32.5823 25.2894 31.4539 25.5491 30.7016 26.4228C30.0199 27.2492 29.4792 27.3201 29.2676 26.6589C29.1031 26.1158 28.0217 25.4783 27.2694 25.4783C26.5172 25.4783 25.4358 26.1158 25.2712 26.6589C25.2007 26.9187 24.9656 27.1312 24.7776 27.1312C24.519 27.1312 24.4485 26.7534 24.4485 25.4783V23.8254H35.0271H45.6058V25.4783ZM105.552 25.4783C105.552 26.8006 105.481 27.1312 105.199 27.1312C105.011 27.1312 104.846 26.9895 104.846 26.8242C104.846 26.1867 103.882 25.5964 102.848 25.5964C101.814 25.5964 100.85 26.1867 100.85 26.8242C100.85 27.3437 99.7215 27.202 99.557 26.6589C99.4629 26.3992 99.0868 26.0214 98.6872 25.8089C97.6998 25.2894 96.5244 25.5491 95.8662 26.4228C95.2785 27.2492 94.5967 27.3437 94.3852 26.6589C94.1971 26.0922 93.1157 25.4783 92.2459 25.4783C91.8698 25.4783 91.3291 25.7853 90.8119 26.3047C89.8716 27.2492 89.425 27.3437 89.2134 26.6589C89.0488 26.1158 87.9674 25.4783 87.2152 25.4783C86.4629 25.4783 85.3816 26.1158 85.217 26.6589C85.1465 26.9187 84.9114 27.1312 84.7233 27.1312C84.4647 27.1312 84.3942 26.7534 84.3942 25.4783V23.8254H94.9729H105.552V25.4783ZM124.123 25.4783C124.123 26.9659 124.076 27.1312 123.653 27.1312C123.394 27.1312 123.183 26.9895 123.183 26.8242C123.183 26.1867 122.219 25.5964 121.184 25.5964C120.15 25.5964 119.186 26.1867 119.186 26.8242C119.186 27.0131 118.904 27.1312 118.481 27.1312C118.058 27.1312 117.776 27.0131 117.776 26.8242C117.776 26.1867 116.812 25.5964 115.778 25.5964C114.743 25.5964 113.779 26.1867 113.779 26.8242C113.779 27.4145 112.698 27.1548 112.181 26.4228C111.523 25.5255 110.347 25.2894 109.313 25.8325C108.89 26.045 108.49 26.4228 108.443 26.6825C108.373 26.9187 108.114 27.1312 107.879 27.1312C107.479 27.1312 107.432 26.9423 107.432 25.4783V23.8254H115.778H124.123V25.4783ZM53.1284 28.1937C53.1284 30.7911 53.0344 32.3259 52.8933 32.3259C52.7523 32.3259 52.6582 31.0981 52.6582 29.1146V25.9033L51.9765 25.2186C51.0362 24.2741 49.8843 24.2741 48.8499 25.2186L48.0741 25.9033L47.9331 29.0674L47.8156 32.2079L47.7685 28.1229L47.7215 24.0615H50.425H53.1284V28.1937ZM60.4159 28.1937C60.4159 30.7911 60.3219 32.3259 60.1808 32.3259C60.0398 32.3259 59.9458 31.0981 59.9458 29.1146V25.9033L59.264 25.2186C58.3237 24.2741 57.1718 24.2741 56.1374 25.2186L55.3617 25.9033V29.1146C55.3617 30.8856 55.2911 32.3259 55.1971 32.3259C55.0796 32.3259 55.009 30.4605 55.009 28.1937V24.0615H57.7125H60.4159V28.1937ZM67.7034 28.1937C67.7034 30.4605 67.6329 32.3259 67.5389 32.3259C67.4213 32.3259 67.3508 30.8856 67.3508 29.1146V25.9033L66.575 25.2186C65.5877 24.3213 64.4828 24.2977 63.4955 25.1477L62.7667 25.7616V29.0438C62.7667 31.0745 62.6727 32.3259 62.5316 32.3259C62.3906 32.3259 62.2966 30.7911 62.2966 28.1937V24.0615H65H67.7034V28.1937ZM75.226 28.1937C75.226 30.7911 75.132 32.3259 74.991 32.3259C74.8499 32.3259 74.7559 31.1925 74.7559 29.3744C74.7559 26.0922 74.5208 25.2894 73.4629 24.8171C72.264 24.2741 70.9476 24.6519 70.3834 25.738C70.1483 26.2103 70.0542 27.2492 70.0542 29.3744C70.0542 31.1925 69.9602 32.3259 69.8192 32.3259C69.6781 32.3259 69.5841 30.7911 69.5841 28.1937V24.0615H72.4051H75.226V28.1937ZM82.5136 28.0757C82.5136 30.6022 82.4195 32.0898 82.2785 32.0898C82.1374 32.0898 82.0434 30.9092 82.0434 28.9966V25.9033L81.3617 25.2186C80.6094 24.463 79.6926 24.3213 78.6347 24.8171C77.5769 25.2894 77.3418 26.0922 77.3418 29.3744C77.3418 31.0036 77.2712 32.3259 77.1772 32.3259C77.0597 32.3259 76.9892 30.4605 76.9892 28.1937V24.0615H79.7631H82.5136V28.0757ZM51.3653 25.8325C51.9295 26.3756 51.953 26.4936 51.953 29.9647V33.5066H50.425H48.8969V29.8938C48.8969 26.2339 49.0145 25.7144 49.8372 25.4075C50.519 25.1713 50.8011 25.2422 51.3653 25.8325ZM58.6528 25.8325C59.217 26.3756 59.2405 26.4936 59.2405 29.9647V33.5066H57.7125H56.1844V29.8938C56.1844 26.2339 56.302 25.7144 57.1248 25.4075C57.8065 25.1713 58.0886 25.2422 58.6528 25.8325ZM65.6582 25.5019C65.9403 25.6672 66.2459 25.9033 66.34 26.045C66.434 26.1867 66.528 27.934 66.528 29.8938V33.5066H65H63.472V29.8702V26.2103L64.0832 25.738C64.8119 25.1713 64.953 25.1477 65.6582 25.5019ZM73.3219 25.6436C73.7685 26.045 73.8156 26.352 73.8626 29.7994L73.9331 33.5066H72.4051H70.877L70.9476 29.7994C70.9946 26.352 71.0416 26.045 71.4882 25.6436C71.7703 25.4311 72.17 25.2422 72.4051 25.2422C72.6401 25.2422 73.0398 25.4311 73.3219 25.6436ZM80.6564 25.6908C81.1971 26.1158 81.2206 26.2811 81.2911 29.823L81.3617 33.5066H79.8336H78.2821V29.7522C78.2821 26.1158 78.3056 25.9742 78.7993 25.62C79.5045 25.1241 79.9982 25.1477 80.6564 25.6908ZM9.87342 26.6589C10.2966 27.084 10.3436 27.4381 10.3436 29.8466V32.5621H8.93309H7.5226V29.7522C7.5226 27.084 7.54611 26.895 8.03978 26.5645C8.74503 26.0686 9.30922 26.0922 9.87342 26.6589ZM15.2803 26.6589C15.7034 27.084 15.7505 27.4381 15.7505 29.8466V32.5621H14.34H12.9295V29.7522C12.9295 27.084 12.953 26.895 13.4467 26.5645C14.1519 26.0686 14.7161 26.0922 15.2803 26.6589ZM20.8047 26.6825C20.9457 26.8242 21.0868 28.1937 21.1103 29.7286L21.2043 32.5621H19.7703H18.3363V29.7522C18.3363 27.084 18.3599 26.895 18.877 26.5409C19.3942 26.1631 20.3345 26.2339 20.8047 26.6825ZM28.1627 26.5645C28.6564 26.895 28.6799 27.084 28.6799 29.7522V32.5621H27.2694H25.859V29.7522C25.859 27.084 25.8825 26.895 26.3761 26.5645C26.6582 26.352 27.0579 26.1867 27.2694 26.1867C27.481 26.1867 27.8807 26.352 28.1627 26.5645ZM33.3345 26.5645C33.8282 26.895 33.8517 27.084 33.8517 29.7522V32.5621H32.4412H31.0307V29.8466C31.0307 27.4381 31.0778 27.084 31.5009 26.6589C32.0651 26.0922 32.6293 26.0686 33.3345 26.5645ZM38.5063 26.5645C39 26.895 39.0235 27.084 39.0235 29.7522V32.5621H37.613H36.2025V29.8938C36.2025 27.202 36.3436 26.6353 37.1429 26.352C37.7306 26.1394 37.9656 26.1631 38.5063 26.5645ZM43.6781 26.5645C44.1718 26.895 44.1953 27.084 44.1953 29.7522V32.5621H42.8553H41.4919L41.5624 29.5869C41.6329 26.8006 41.6564 26.6117 42.1501 26.4228C42.9024 26.1158 43.0904 26.1394 43.6781 26.5645ZM88.1555 26.6589C88.5787 27.084 88.6257 27.4381 88.6257 29.8466V32.5621H87.2152H85.8047V29.7522C85.8047 27.084 85.8282 26.895 86.3219 26.5645C87.0271 26.0686 87.5913 26.0922 88.1555 26.6589ZM93.2803 26.5645C93.774 26.895 93.7975 27.084 93.7975 29.7522V32.5621H92.387H90.9765V29.8466C90.9765 27.4381 91.0235 27.084 91.4467 26.6589C92.0108 26.0922 92.575 26.0686 93.2803 26.5645ZM98.4521 26.5645C98.9457 26.895 98.9693 27.084 98.9693 29.7522V32.5621H97.5588H96.1483V29.8466C96.1483 27.4381 96.1953 27.084 96.6184 26.6589C97.1826 26.0922 97.7468 26.0686 98.4521 26.5645ZM103.624 26.5645C104.118 26.895 104.141 27.084 104.141 29.7522V32.5621H102.731H101.32V30.1064C101.32 27.4145 101.532 26.5172 102.19 26.352C102.942 26.1631 103.083 26.1867 103.624 26.5645ZM111.617 26.8242C111.805 27.084 111.899 28.1229 111.899 29.8938V32.5621H110.488H109.078V29.7522C109.078 27.084 109.101 26.895 109.618 26.5409C110.206 26.1158 111.17 26.2575 111.617 26.8242ZM116.459 26.4228C117.024 26.6353 117.047 26.6825 117.118 29.6105L117.188 32.5621H115.848H114.485V29.7522C114.485 27.084 114.508 26.895 115.002 26.5645C115.613 26.1158 115.684 26.1158 116.459 26.4228ZM121.96 26.5645C122.454 26.895 122.477 27.084 122.477 29.7522V32.5621H121.137H119.774L119.844 29.5869C119.915 26.8006 119.939 26.6117 120.432 26.4228C121.184 26.1158 121.373 26.1394 121.96 26.5645ZM24.2134 35.7497V38.2291H13.9873H3.7613V35.7497V33.2704H13.9873H24.2134V35.7497ZM45.1356 33.4593C45.1356 33.5774 44.1248 34.1205 42.9024 34.6636C40.9277 35.5845 40.1754 36.1039 40.9042 36.1039C41.0452 36.1039 41.1392 36.5762 41.1392 37.1665V38.2291H33.0289H24.9186V35.7497V33.2704H35.0271C40.5986 33.2704 45.1356 33.3649 45.1356 33.4593ZM105.081 35.7497V38.2291H97.0886H89.0958V37.1665C89.0958 36.5762 89.2134 36.1039 89.3309 36.1039C89.472 36.1039 89.566 36.2692 89.566 36.4581C89.566 36.7415 89.9186 36.8123 91.3291 36.8123C92.8807 36.8123 93.0922 36.7651 93.0922 36.3873C93.0922 35.2539 91.0235 34.6163 90.1067 35.4664C89.6835 35.8206 89.519 35.797 87.2622 34.7344C85.9693 34.1205 84.8879 33.5538 84.8644 33.4357C84.8644 33.3413 89.425 33.2704 94.9729 33.2704H105.081V35.7497ZM126.474 35.7497V38.2291H116.13H105.787V35.7497V33.2704H116.13H126.474V35.7497ZM65 34.6872C75.7432 34.6872 83.2188 34.5927 83.2658 34.4747C83.3128 34.3566 83.9946 34.64 84.7939 35.1122L86.2749 35.9859V37.7096V39.4333L85.7577 39.0791C85.2875 38.7485 82.9367 38.7013 65 38.7013C46.8987 38.7013 44.7125 38.7485 44.2423 39.0791L43.7016 39.4569L43.7722 37.7332L43.8427 36.0331L45.2532 35.1594C46.0289 34.6872 46.7107 34.3802 46.7342 34.4747C46.7812 34.5927 55.009 34.6872 65 34.6872Z" fill="white"/>
</svg>
