<svg width="259" height="269" viewBox="0 0 259 269" fill="none" xmlns="http://www.w3.org/2000/svg">
<path d="M0 96.5334V192.8L9.06667 196C21.7333 200.533 56.8 218.533 73.6 229.067C91.0667 240 107.733 252.4 117.733 261.467L125.2 268.4L135.733 259.2C149.467 247.467 163.733 237.2 182 226.133C200.267 215.067 232.8 198.8 243.067 195.6L250.667 193.2V160.667C250.667 142.8 250.4 128.133 250 128.133C249.6 128.133 247.733 129.067 246 130.267L242.667 132.4V123.6C242.667 118.667 243.2 114.8 244 114.8C244.8 114.8 245.333 117.2 245.333 120.133C245.333 123.067 245.733 125.467 246.133 125.467C246.533 125.467 249.467 123.867 252.8 122L258.667 118.533V110.667V102.667L254.667 104.8L250.667 106.933V53.4667V0L247.733 0.800018C240.4 3.06668 226.4 9.06668 214.4 15.0667L201.333 21.4667V16.8C201.333 14.2667 201.067 12.1333 200.667 12.1333C200.4 12.1333 197.333 13.7333 194 15.7333L188 19.4667V27.7334C188 32.4 188.4 36.1333 188.8 36.1333C189.333 36.1333 191.733 34.9333 194.133 33.3333C197.867 31.0667 198.667 30.9333 198.667 32.5333C198.667 34.2667 186.933 42.8 184.667 42.8C184.267 42.8 184 40.4 184 37.4667C184 34.5333 183.733 32.1333 183.333 32.1333C182.133 32.1333 159.6 46.9333 151.333 53.2C146.933 56.5333 139.333 62.8 134.267 67.0667L125.333 75.0667L116.933 67.4667C99.7333 51.7334 67.0667 30.4 37.3333 15.4667C22.9333 8.26666 3.86667 0.133331 1.33333 0.133331C0.533333 0.133331 0 34.8 0 96.5334ZM236 26.6667C236 31.4667 235.467 32.2667 229.333 36L222.667 40.1333V52.1333C222.667 58.6667 222.933 64.1333 223.333 64.1333C223.733 64.1333 227.333 62 231.333 59.4667C238 55.3333 238.667 55.0667 238.667 57.4667C238.667 58.9333 238.133 60.1333 237.333 60.1333C236.4 60.1333 236 81.3333 236 121.2V182.267L223.067 188.133C194.933 200.8 163.467 219.333 139.867 237.067L125.333 248.133V172.667V97.2L136.4 85.8667C149.067 72.8 165.2 60.2667 186 47.4667C201.2 38 232.267 21.4667 234.667 21.4667C235.333 21.4667 236 23.8667 236 26.6667ZM33.2 48.8C37.2 50.8 38.6667 53.2 38.6667 57.6C38.6667 59.3333 41.2 61.3333 47.0667 64.2667C60.2667 70.9333 80.8 83.6 96.2667 94.6667C110.133 104.4 110.667 104.933 110.667 109.733V114.8L98.6667 105.733C84.9333 95.4667 66 83.3333 48.9333 74.1333C38.6667 68.5333 36.8 68 33.8667 69.3333C26.2667 72.8 19.0667 70.1333 16 62.8C14.6667 59.6 14.6667 58 16 54.8C19.2 47.2 25.7333 44.9333 33.2 48.8ZM41.3333 109.6C52.6667 115.333 68.6667 124.267 76.9333 129.467C90.1333 137.733 92.2667 138.667 95.3333 137.467C99.6 135.867 107.067 138.533 109.2 142.533C112.667 149.067 110.133 156.667 103.733 159.467C95.6 162.8 86.8 157.2 86.6667 148.8C86.6667 145.2 85.3333 144 74.9333 137.333C60.9333 128.4 37.6 115.467 24.4 109.467C15.6 105.467 14.6667 104.667 14.6667 101.2C14.6667 96.1333 14.9333 96.2667 41.3333 109.6ZM35.3333 146.133C37.2 147.867 38.6667 150.8 38.6667 152.533C38.6667 155.2 40.9333 156.933 53.0667 163.467C68.6667 171.867 84.2667 181.6 100.4 193.2C110.133 200.133 110.667 200.8 110.667 205.6V210.667L96.8 200.133C84.1333 190.667 55.6 172.667 42 165.733C37.2 163.333 36.2667 163.333 33.3333 164.933C29.0667 167.2 26 167.2 21.4667 164.8C16.9333 162.533 14.1333 156.533 15.4667 151.6C17.4667 143.2 29.2 139.867 35.3333 146.133Z" fill="white"/>
</svg>
